<?xml version="1.0" standalone="no"?>
<!DOCTYPE svg PUBLIC "-//W3C//DTD SVG 20010904//EN"
 "http://www.w3.org/TR/2001/REC-SVG-20010904/DTD/svg10.dtd">
<svg version="1.0" xmlns="http://www.w3.org/2000/svg"
 width="508.000000pt" height="415.000000pt" viewBox="0 0 508.000000 415.000000"
 preserveAspectRatio="xMidYMid meet">

<g transform="translate(0.000000,415.000000) scale(0.100000,-0.100000)"
stroke="none">
<path d="M700 4129 c-261 -30 -477 -175 -607 -409 -31 -55 -71 -188 -83 -273
-14 -110 -14 -2619 1 -2742 21 -176 95 -336 211 -456 80 -84 141 -127 248
-174 151 -66 134 -65 978 -65 840 0 813 -2 852 62 19 31 20 50 20 366 0 363
-1 370 -57 408 -26 17 -54 19 -331 22 -228 3 -306 1 -317 -8 -13 -10 -15 -59
-15 -296 l0 -284 -455 0 -456 0 -78 26 c-125 41 -243 148 -296 269 -42 96 -45
160 -45 1080 l0 875 304 0 304 0 7 -41 c4 -22 24 -76 46 -118 89 -178 276
-291 479 -291 135 0 300 75 389 176 44 51 106 170 119 229 l8 40 94 3 c127 4
134 1 149 -50 73 -251 291 -409 546 -396 218 12 411 162 470 368 l22 75 304 0
304 0 0 -825 0 -825 -170 -5 -170 -5 -3 -427 -2 -428 80 0 80 0 0 159 c0 88 3
166 6 175 5 13 25 16 116 16 l109 0 20 -46 c12 -25 34 -85 51 -132 38 -110 55
-138 94 -157 41 -19 128 -20 143 -1 7 9 11 38 9 73 l-3 58 -39 5 -39 5 -34 94
c-18 52 -32 95 -30 97 1 2 20 9 41 16 66 22 76 54 76 241 0 159 -4 181 -40
222 -17 19 -18 100 -23 1330 -7 1475 -1 1364 -87 1541 -98 202 -265 339 -489
402 l-96 27 -1320 1 c-726 1 -1354 -2 -1395 -7z m2688 -268 c144 -17 304 -126
367 -251 60 -119 60 -122 60 -545 l0 -390 -304 0 -305 0 -14 64 c-26 117 -116
241 -226 313 -101 66 -242 96 -354 77 -139 -24 -232 -74 -325 -174 -45 -48
-113 -183 -123 -243 l-7 -43 -116 3 -115 3 -8 45 c-4 25 -22 72 -38 106 -122
239 -364 353 -615 290 -175 -45 -320 -187 -371 -366 l-22 -75 -301 -3 -301 -2
0 357 c1 416 8 476 66 581 73 130 219 235 351 252 81 10 2612 11 2701 1z
m-1932 -840 c192 -37 318 -161 355 -350 33 -171 -68 -363 -231 -440 -112 -53
-268 -50 -375 7 -64 35 -146 117 -174 174 -122 254 12 536 287 602 71 18 78
18 138 7z m1300 -5 c246 -53 396 -296 325 -525 -39 -125 -112 -209 -229 -264
-61 -28 -75 -31 -167 -31 -137 1 -194 23 -285 113 -37 36 -80 91 -96 121 -27
52 -28 62 -28 175 0 111 2 124 27 177 58 119 167 204 300 233 78 17 80 17 153
1z m-598 -2573 l2 -282 -185 -3 c-102 -2 -190 -1 -195 0 -16 6 -13 559 3 565
6 3 93 5 192 4 l180 -2 3 -282z m1825 213 c5 -39 6 -89 2 -113 l-6 -43 -172 2
-172 3 -3 99 c-2 64 1 103 9 112 10 12 43 14 173 12 l161 -3 8 -69z"/>
<path d="M1311 2920 c-118 -25 -241 -188 -241 -320 0 -90 63 -212 135 -262 64
-44 158 -72 221 -65 201 21 347 214 300 397 -26 99 -97 189 -182 231 -50 24
-165 33 -233 19z m273 -109 c24 -20 46 -72 46 -107 0 -15 -11 -47 -25 -70 -59
-100 -202 -78 -236 36 -38 126 114 227 215 141z"/>
<path d="M2597 2920 c-57 -15 -90 -35 -145 -88 -62 -60 -94 -139 -95 -234 -1
-59 3 -76 38 -145 33 -63 50 -84 94 -115 172 -120 379 -73 489 112 25 41 27
54 27 150 0 103 -1 107 -35 164 -36 59 -90 110 -148 140 -39 20 -171 29 -225
16z m274 -116 c63 -60 60 -145 -6 -203 -30 -26 -44 -31 -85 -31 -41 0 -55 5
-85 31 -38 33 -61 95 -49 132 31 99 154 139 225 71z"/>
<path d="M968 1519 c-22 -12 -23 -60 -3 -99 19 -38 66 -73 141 -106 47 -21 69
-25 107 -21 81 10 85 19 26 56 -50 31 -55 32 -106 23 -33 -5 -56 -5 -59 0 -10
15 0 19 93 34 48 7 110 18 136 24 27 6 53 7 58 4 15 -9 -10 -34 -35 -34 -21
-1 -21 -1 3 -20 13 -11 35 -23 48 -26 27 -7 103 12 103 25 0 12 -123 118 -157
136 -33 18 -327 21 -355 4z"/>
<path d="M3009 1517 c-14 -7 -58 -32 -97 -56 -40 -24 -75 -41 -78 -38 -3 3 6
22 20 43 14 20 23 41 20 46 -8 13 -81 9 -117 -6 -37 -16 -147 -116 -147 -133
0 -7 16 -15 35 -19 39 -7 157 0 193 11 36 12 26 -13 -14 -33 -47 -24 -34 -33
55 -40 58 -4 74 -1 119 22 135 68 190 175 106 206 -33 13 -63 12 -95 -3z
m-240 -83 c17 -4 31 -13 31 -21 0 -22 -74 -13 -78 10 -4 19 1 20 47 11z m240
-43 c27 -17 0 -34 -46 -28 -50 5 -64 14 -43 27 19 12 71 12 89 1z"/>
<path d="M1519 1360 c-8 -5 -45 -18 -84 -30 -156 -48 -200 -63 -208 -70 -11
-9 107 -50 144 -50 15 0 34 6 41 13 7 6 53 32 102 57 48 25 88 50 87 55 -3 15
-65 34 -82 25z"/>
<path d="M2530 1360 c-8 -6 -40 -17 -70 -26 -30 -8 -61 -17 -69 -20 -8 -3 17
-25 60 -56 41 -28 84 -60 96 -70 18 -17 29 -19 65 -13 61 11 256 73 263 85 10
17 -20 11 -93 -16 l-70 -26 -41 21 c-23 12 -41 25 -41 29 0 4 19 15 43 24 l42
17 -34 0 c-19 1 -49 -4 -67 -11 -25 -9 -39 -8 -63 2 -39 16 -36 30 9 45 27 9
30 13 16 18 -23 9 -28 9 -46 -3z"/>
<path d="M1594 1308 c-33 -28 -115 -77 -159 -96 -25 -11 -27 -15 -14 -22 9 -6
48 -13 87 -16 71 -7 71 -7 113 30 29 25 46 33 53 26 7 -7 -1 -20 -24 -42 l-35
-32 35 -7 c19 -4 59 -9 88 -12 45 -5 52 -4 52 11 0 10 5 23 11 29 8 8 6 15
-10 25 -30 19 -26 38 8 38 40 0 61 9 61 26 0 18 -28 29 -115 43 -39 6 -82 14
-96 17 -18 4 -34 -1 -55 -18z m156 -28 c0 -13 -49 -44 -57 -36 -9 8 27 46 44
46 7 0 13 -4 13 -10z"/>
<path d="M2213 1293 c-24 -2 -43 -6 -43 -7 0 -2 16 -38 36 -81 l36 -78 76 7
c120 10 224 28 215 37 -5 5 -36 3 -70 -3 l-62 -11 -71 71 c-38 40 -71 71 -73
70 -1 -1 -21 -3 -44 -5z"/>
<path d="M1969 1280 c-58 -7 -69 -16 -99 -80 -34 -72 -27 -75 133 -75 129 0
187 7 187 23 0 5 -6 15 -12 24 -10 12 -26 15 -75 11 -51 -4 -62 -9 -65 -25 -6
-38 -23 -17 -26 33 -4 59 11 85 32 57 17 -23 106 -26 106 -3 0 8 -8 18 -17 23
-26 13 -111 20 -164 12z"/>
<path d="M2759 823 c-12 -27 -38 -91 -59 -143 -36 -91 -111 -275 -218 -538
-36 -88 -47 -125 -38 -128 7 -3 48 -4 91 -2 l78 3 28 84 c15 46 32 88 37 93 4
4 91 7 192 6 l183 -3 36 -90 37 -90 79 0 c77 0 80 1 78 23 -3 19 -73 207 -134
357 -11 28 -35 91 -53 140 -18 50 -47 122 -63 160 -16 39 -33 84 -37 100 -17
69 -28 75 -127 75 l-90 0 -20 -47z m154 -245 c46 -118 79 -219 74 -224 -6 -7
-236 -9 -242 -2 -4 4 13 58 38 120 24 62 52 134 62 160 10 26 21 45 25 43 4
-3 24 -47 43 -97z"/>
<path d="M4345 859 c-3 -8 -4 -201 -3 -429 l3 -415 85 0 85 0 3 188 2 187 79
0 80 0 34 -57 c18 -32 59 -103 90 -159 79 -140 100 -157 187 -162 l70 -4 0 56
0 56 -32 0 c-33 0 -34 3 -120 173 -49 95 -88 180 -88 188 0 8 8 26 17 39 31
45 183 328 183 342 0 5 -35 8 -77 6 l-77 -3 -29 -50 c-16 -27 -46 -81 -67
-120 -20 -38 -50 -91 -65 -117 l-27 -48 -79 0 -79 0 0 165 0 165 -69 0 c-38 0
-76 3 -85 6 -9 3 -18 0 -21 -7z"/>
</g>
</svg>
