<?xml version="1.0" encoding="UTF-8"?>
<svg xmlns="http://www.w3.org/2000/svg" xmlns:xlink="http://www.w3.org/1999/xlink" width="500px" height="380px" viewBox="0 0 500 380" version="1.1">
<defs>
<filter id="alpha" filterUnits="objectBoundingBox" x="0%" y="0%" width="100%" height="100%">
  <feColorMatrix type="matrix" in="SourceGraphic" values="0 0 0 0 1 0 0 0 0 1 0 0 0 0 1 0 0 0 1 0"/>
</filter>
<mask id="mask0">
  <g filter="url(#alpha)">
<rect x="0" y="0" width="500" height="380" style="fill:rgb(0%,0%,0%);fill-opacity:0.258824;stroke:none;"/>
  </g>
</mask>
<clipPath id="clip1">
  <rect x="0" y="0" width="500" height="380"/>
</clipPath>
<g id="surface5" clip-path="url(#clip1)">
<path style=" stroke:none;fill-rule:nonzero;fill:rgb(20.392157%,30.588235%,30.980392%);fill-opacity:1;" d="M 293.824219 229.230469 L 325.085938 210.34375 L 325.085938 183.121094 L 293.523438 200.894531 Z M 293.824219 229.230469 "/>
</g>
<mask id="mask1">
  <g filter="url(#alpha)">
<rect x="0" y="0" width="500" height="380" style="fill:rgb(0%,0%,0%);fill-opacity:0.509804;stroke:none;"/>
  </g>
</mask>
<clipPath id="clip2">
  <rect x="0" y="0" width="500" height="380"/>
</clipPath>
<g id="surface8" clip-path="url(#clip2)">
<path style=" stroke:none;fill-rule:nonzero;fill:rgb(20.392157%,30.588235%,30.980392%);fill-opacity:1;" d="M 215.1875 202.070312 C 214.945312 202.621094 214.816406 203.214844 214.8125 203.820312 C 214.8125 206.871094 218.023438 209.355469 222 209.355469 C 225.976562 209.355469 229.1875 206.820312 229.1875 203.820312 C 229.183594 203.34375 229.105469 202.875 228.949219 202.425781 C 224.894531 205.738281 219.070312 205.585938 215.1875 202.070312 Z M 215.1875 202.070312 "/>
</g>
<mask id="mask2">
  <g filter="url(#alpha)">
<rect x="0" y="0" width="500" height="380" style="fill:rgb(0%,0%,0%);fill-opacity:0.509804;stroke:none;"/>
  </g>
</mask>
<clipPath id="clip3">
  <rect x="0" y="0" width="500" height="380"/>
</clipPath>
<g id="surface11" clip-path="url(#clip3)">
<path style=" stroke:none;fill-rule:nonzero;fill:rgb(20.392157%,30.588235%,30.980392%);fill-opacity:1;" d="M 137.738281 158.460938 C 137.492188 159.011719 137.367188 159.605469 137.363281 160.207031 C 137.363281 163.261719 140.574219 165.742188 144.550781 165.742188 C 148.523438 165.742188 151.738281 163.210938 151.738281 160.207031 C 151.734375 159.734375 151.65625 159.261719 151.5 158.816406 C 147.445312 162.125 141.621094 161.976562 137.738281 158.460938 Z M 137.738281 158.460938 "/>
</g>
<mask id="mask3">
  <g filter="url(#alpha)">
<rect x="0" y="0" width="500" height="380" style="fill:rgb(0%,0%,0%);fill-opacity:0.509804;stroke:none;"/>
  </g>
</mask>
<clipPath id="clip4">
  <rect x="0" y="0" width="500" height="380"/>
</clipPath>
<g id="surface14" clip-path="url(#clip4)">
<path style=" stroke:none;fill-rule:nonzero;fill:rgb(20.392157%,30.588235%,30.980392%);fill-opacity:1;" d="M 205.851562 237.640625 L 198.101562 232.484375 L 190.351562 238.09375 L 187.164062 238.183594 L 187.164062 240.402344 L 198.675781 247.050781 L 209.039062 239.765625 L 209.039062 237.550781 Z M 205.851562 237.640625 "/>
</g>
<mask id="mask4">
  <g filter="url(#alpha)">
<rect x="0" y="0" width="500" height="380" style="fill:rgb(0%,0%,0%);fill-opacity:0.509804;stroke:none;"/>
  </g>
</mask>
<clipPath id="clip5">
  <rect x="0" y="0" width="500" height="380"/>
</clipPath>
<g id="surface17" clip-path="url(#clip5)">
<path style=" stroke:none;fill-rule:nonzero;fill:rgb(20.392157%,30.588235%,30.980392%);fill-opacity:1;" d="M 195.511719 230.800781 C 195.511719 230.800781 199.261719 233.761719 201.851562 230.800781 L 201.851562 228.683594 C 201.851562 228.683594 203 228.683594 203.414062 230.507812 L 203.414062 238.386719 C 203.414062 238.386719 202.726562 240.503906 198.851562 240.386719 C 194.976562 240.273438 193.925781 237.753906 193.925781 237.753906 L 193.925781 230.535156 C 193.925781 230.535156 194.023438 228.695312 195.488281 228.695312 Z M 195.511719 230.800781 "/>
</g>
<mask id="mask5">
  <g filter="url(#alpha)">
<rect x="0" y="0" width="500" height="380" style="fill:rgb(0%,0%,0%);fill-opacity:0.509804;stroke:none;"/>
  </g>
</mask>
<clipPath id="clip6">
  <rect x="0" y="0" width="500" height="380"/>
</clipPath>
<g id="surface20" clip-path="url(#clip6)">
<path style=" stroke:none;fill-rule:nonzero;fill:rgb(20.392157%,30.588235%,30.980392%);fill-opacity:1;" d="M 157 222.503906 L 168.511719 229.152344 L 178.875 221.871094 L 167.9375 214.585938 Z M 157 222.503906 "/>
<path style=" stroke:none;fill-rule:nonzero;fill:rgb(20.392157%,30.588235%,30.980392%);fill-opacity:1;" d="M 178.875 221.871094 L 178.875 219.652344 L 157 220.285156 L 157 222.503906 Z M 178.875 221.871094 "/>
</g>
<mask id="mask6">
  <g filter="url(#alpha)">
<rect x="0" y="0" width="500" height="380" style="fill:rgb(0%,0%,0%);fill-opacity:0.509804;stroke:none;"/>
  </g>
</mask>
<clipPath id="clip7">
  <rect x="0" y="0" width="500" height="380"/>
</clipPath>
<g id="surface23" clip-path="url(#clip7)">
<path style=" stroke:none;fill-rule:nonzero;fill:rgb(20.392157%,30.588235%,30.980392%);fill-opacity:1;" d="M 165.511719 213.941406 C 165.511719 213.941406 169.261719 216.902344 171.851562 213.941406 L 171.851562 211.824219 C 171.851562 211.824219 173 211.824219 173.414062 213.648438 L 173.414062 221.527344 C 173.414062 221.527344 172.726562 223.644531 168.851562 223.527344 C 164.976562 223.414062 163.925781 220.894531 163.925781 220.894531 L 163.925781 213.648438 C 163.925781 213.648438 164.023438 211.8125 165.488281 211.8125 Z M 165.511719 213.941406 "/>
</g>
</defs>
<g id="surface1">
<path style=" stroke:none;fill-rule:nonzero;fill:rgb(53.333333%,69.803922%,84.705882%);fill-opacity:1;" d="M 234.023438 357.757812 L 26.8125 233.625 C 20.210938 229.824219 14.5625 223.707031 20.988281 219.691406 L 228.949219 98.253906 C 232.074219 96.292969 236.8125 95.011719 239.976562 96.875 L 457.476562 224.808594 C 464.074219 228.683594 465.25 239.539062 458.648438 243.414062 L 261.335938 357.554688 C 252.914062 362.523438 242.519531 362.601562 234.023438 357.757812 Z M 234.023438 357.757812 "/>
<path style=" stroke:none;fill-rule:nonzero;fill:rgb(48.627451%,16.078431%,15.294118%);fill-opacity:1;" d="M 268.238281 141.195312 C 262.316406 139.753906 256.535156 137.789062 250.949219 135.332031 C 249.578125 134.703125 248.078125 134.40625 246.574219 134.46875 C 246.167969 133.460938 245.707031 132.476562 245.199219 131.519531 C 244.574219 130.339844 243.875 129.1875 243.261719 128.007812 C 242.648438 126.832031 242.5 126.742188 242.460938 125.703125 C 242.175781 116.925781 230.023438 116.015625 227.8125 123.042969 L 225.3125 123.816406 C 225.082031 123.058594 224.933594 122.277344 224.863281 121.484375 L 224.863281 148.933594 C 224.933594 149.726562 225.082031 150.507812 225.3125 151.265625 L 228.75 150.175781 L 230.648438 150.820312 L 230.648438 166.414062 C 230.804688 166.671875 230.96875 166.921875 231.148438 167.160156 C 232.675781 168.972656 234.351562 170.773438 235.6875 172.621094 C 236.113281 173.632812 237.101562 174.28125 238.1875 174.253906 C 238.726562 174.367188 239.285156 174.320312 239.800781 174.117188 L 239.800781 190.113281 C 239.808594 190.320312 239.859375 190.523438 239.949219 190.710938 C 240.449219 191.8125 241.539062 192.46875 244.0625 192.546875 C 244.640625 192.546875 245.21875 192.625 245.773438 192.785156 C 246.210938 192.953125 246.710938 193.253906 246.710938 193.484375 L 246.710938 170.796875 C 246.800781 169.960938 247.355469 169.253906 248.136719 168.972656 C 248.34375 168.886719 248.558594 168.816406 248.773438 168.757812 L 248.773438 184.605469 C 248.78125 184.78125 248.828125 184.953125 248.914062 185.109375 C 248.992188 185.28125 249.035156 185.464844 249.039062 185.65625 L 249.039062 168.683594 C 250 168.476562 250.980469 168.378906 251.960938 168.390625 L 251.960938 177.421875 C 251.960938 177.765625 252.351562 178.15625 252.539062 178.511719 C 252.753906 178.898438 252.867188 179.332031 252.875 179.777344 L 252.875 168.378906 C 254.542969 168.378906 256.207031 168.421875 257.875 168.503906 C 258.820312 168.496094 259.765625 168.566406 260.699219 168.71875 C 261.757812 169.011719 262.796875 169.363281 263.8125 169.769531 L 263.8125 155.722656 L 264.363281 155.875 C 273.625 158.207031 277.625 143.550781 268.238281 141.195312 Z M 268.238281 141.195312 "/>
<path style=" stroke:none;fill-rule:nonzero;fill:rgb(48.627451%,16.078431%,15.294118%);fill-opacity:1;" d="M 331.050781 132.671875 C 330.546875 132.839844 330.027344 132.941406 329.5 132.976562 C 328.933594 132.988281 328.371094 133.050781 327.8125 133.152344 L 327.8125 133.214844 L 327.8125 121.296875 C 327.773438 121.597656 327.578125 121.851562 327.300781 121.96875 C 326.355469 122.242188 325.390625 122.429688 324.414062 122.523438 C 323.410156 120.992188 321.953125 119.828125 320.25 119.191406 L 320.25 111.175781 C 320.070312 111.414062 319.972656 111.699219 319.960938 112 L 319.960938 119.066406 C 317.441406 118.25 314.683594 118.980469 312.875 120.941406 C 312.074219 121.738281 311.273438 122.523438 310.476562 123.296875 L 310.476562 114.429688 C 310.46875 114.230469 310.394531 114.039062 310.261719 113.886719 C 310.164062 113.773438 310.109375 113.628906 310.101562 113.480469 L 310.101562 123.613281 C 303.851562 129.59375 298.136719 135.117188 297.398438 144.640625 C 297.085938 148.730469 301.074219 152.242188 304.898438 152.242188 C 306.691406 152.261719 308.425781 151.589844 309.75 150.367188 C 309.382812 151.21875 308.914062 152.023438 308.351562 152.761719 C 307.882812 153.269531 307.339844 153.695312 306.738281 154.027344 L 306.648438 154.027344 C 305.902344 154.078125 305.164062 154.242188 304.460938 154.507812 C 303.714844 154.675781 302.980469 154.894531 302.261719 155.152344 C 301.75 155.382812 301.5625 155.6875 301.5625 156.015625 L 301.5625 156.179688 C 299.886719 156.726562 298.273438 157.207031 297.164062 157.660156 C 289.738281 160.714844 291.289062 171.59375 297.300781 172.796875 L 297.300781 193.660156 C 297.285156 193.402344 297.40625 193.152344 297.625 193.015625 C 298.078125 192.875 298.550781 192.8125 299.023438 192.835938 C 299.609375 192.878906 300.1875 192.957031 300.761719 193.066406 C 301.039062 192.621094 301.246094 192.132812 301.375 191.621094 C 301.375 191.621094 301.375 191.546875 301.375 191.507812 L 301.375 187.441406 C 301.792969 186.828125 302.046875 186.117188 302.113281 185.375 L 302.113281 182.78125 L 302.210938 182.78125 C 302.933594 182.519531 303.667969 182.304688 304.414062 182.132812 C 305.113281 181.867188 305.851562 181.703125 306.601562 181.652344 C 307.851562 181.742188 309.101562 182.007812 309.261719 182.730469 C 309.398438 183.335938 309.496094 183.949219 309.5625 184.566406 C 309.566406 184.621094 309.566406 184.675781 309.5625 184.730469 L 309.5625 184.933594 C 309.542969 185.050781 309.542969 185.171875 309.5625 185.289062 C 309.914062 186.351562 310.550781 186.554688 312.511719 186.085938 C 312.753906 186.136719 312.984375 186.222656 313.199219 186.339844 L 313.199219 187.605469 C 313.199219 187.734375 313.261719 187.871094 313.460938 187.984375 C 314.460938 187.53125 315.011719 187.023438 315.011719 186.429688 L 315.011719 184.957031 C 315.097656 184.511719 315.253906 184.085938 315.476562 183.691406 L 315.476562 193.015625 C 315.476562 193.015625 315.476562 193.015625 315.476562 193.089844 C 315.554688 193.457031 315.660156 193.816406 315.789062 194.167969 C 315.789062 194.210938 315.789062 194.25 315.789062 194.292969 L 315.789062 183.183594 C 316.566406 182.1875 317.546875 181.367188 318.664062 180.777344 C 319.351562 180.386719 319.449219 179.753906 319.648438 179.207031 C 320.066406 177.8125 320.546875 176.4375 321.101562 175.089844 C 321.359375 174.605469 321.5 174.0625 321.511719 173.507812 L 321.511719 169.605469 C 321.738281 169.480469 322 169.351562 322.324219 169.226562 C 322.648438 169.101562 323.101562 168.769531 323.101562 168.542969 C 323.125 168.199219 323.265625 167.878906 323.5 167.628906 L 323.5 169.554688 C 323.496094 169.644531 323.496094 169.734375 323.5 169.820312 L 323.5 197.269531 C 323.5 196.96875 323.554688 196.667969 323.664062 196.382812 L 323.664062 194.710938 L 323.664062 196.332031 C 323.925781 196.21875 324.0625 196.066406 324.0625 195.878906 L 324.0625 194.128906 C 324.664062 193.34375 325.3125 192.558594 325.925781 191.773438 C 326.179688 191.503906 326.492188 191.296875 326.835938 191.164062 C 327.332031 190.980469 327.835938 190.824219 328.351562 190.695312 L 328.351562 164.4375 C 328.351562 164.4375 328.351562 164.4375 328.351562 164.375 L 328.351562 163.222656 C 328.5625 163.046875 328.695312 162.789062 328.726562 162.511719 L 328.726562 160.4375 L 329.386719 160.4375 C 329.914062 160.402344 330.4375 160.300781 330.9375 160.132812 C 331.800781 159.550781 332.261719 159.117188 332.273438 158.714844 L 332.273438 131.265625 C 332.386719 131.65625 331.925781 132.089844 331.050781 132.671875 Z M 331.050781 132.671875 "/>
<path style=" stroke:none;fill-rule:nonzero;fill:rgb(48.627451%,16.078431%,15.294118%);fill-opacity:1;" d="M 384.664062 199.195312 C 384.0625 199.109375 383.507812 198.816406 383.085938 198.371094 C 381.960938 196.726562 380.9375 195.066406 379.976562 193.394531 C 379.894531 193.273438 379.847656 193.132812 379.835938 192.988281 L 379.835938 220.4375 C 379.847656 220.582031 379.894531 220.722656 379.976562 220.84375 C 380.9375 222.515625 381.960938 224.175781 383.085938 225.820312 C 383.507812 226.265625 384.0625 226.558594 384.664062 226.644531 C 386.960938 227.023438 389.351562 227.289062 392.164062 227.671875 L 392.164062 200.222656 C 389.335938 199.84375 386.949219 199.574219 384.664062 199.195312 Z M 384.664062 199.195312 "/>
<path style=" stroke:none;fill-rule:nonzero;fill:rgb(48.627451%,16.078431%,15.294118%);fill-opacity:1;" d="M 370.625 195.761719 L 370.625 196.714844 L 370.488281 196.800781 L 370.488281 198.335938 C 370.140625 197.757812 369.722656 197.226562 369.238281 196.765625 C 368.890625 194.820312 368.285156 192.933594 367.4375 191.152344 L 367.226562 190.734375 L 367.226562 189.164062 C 367.226562 189.644531 367.148438 190.074219 367.101562 190.429688 C 366.875 190.015625 366.632812 189.59375 366.375 189.164062 L 366.375 185.25 C 366.371094 185.410156 366.3125 185.566406 366.210938 185.691406 C 365.964844 186.007812 365.824219 186.394531 365.8125 186.796875 L 365.8125 188.378906 C 365.429688 187.875 365.011719 187.402344 364.5625 186.960938 L 364.5625 182.398438 L 362.824219 182.894531 L 362.824219 185.617188 C 362.625 185.492188 362.425781 185.363281 362.226562 185.25 C 360.871094 184.527344 359.386719 184.097656 357.863281 183.984375 C 357.15625 183.839844 356.429688 183.796875 355.710938 183.855469 L 355.710938 178.703125 C 355.710938 178.839844 355.5625 179.003906 355.261719 179.171875 C 353.523438 180.121094 354.289062 181.539062 352.5 182.464844 C 350.988281 182.207031 349.441406 182.503906 348.125 183.300781 C 345.125 185.085938 343.511719 189.734375 345.625 192.835938 C 346.847656 194.851562 348.707031 196.386719 350.898438 197.195312 C 350.988281 197.195312 351.539062 197.359375 352.273438 197.511719 L 352.273438 210.011719 C 354.074219 209.203125 353.523438 207.9375 354.699219 206.972656 C 354.6875 207.660156 354.789062 208.347656 355 209 C 354.171875 209.582031 353.476562 210.339844 352.960938 211.214844 C 346.710938 221.640625 334.675781 219.132812 324.6875 220.425781 C 320.027344 220.914062 315.539062 222.496094 311.585938 225.046875 C 309.460938 226.46875 306.800781 229.632812 303.988281 231.789062 C 303.148438 230.496094 301.851562 229.589844 300.363281 229.253906 C 297.050781 228.492188 292.523438 230.28125 291.898438 234.117188 C 291.824219 234.597656 291.773438 235.066406 291.710938 235.535156 C 291.246094 233.101562 289.46875 231.144531 287.113281 230.46875 C 268.789062 225.265625 245.3125 224.136719 228.6875 234.929688 C 225.988281 236.597656 224.816406 239.953125 225.875 242.972656 C 219.625 246.304688 212.125 247.507812 205.1875 247.960938 C 203.21875 248.058594 201.390625 249.027344 200.1875 250.609375 C 198.386719 250.519531 196.648438 250.371094 195.300781 250.382812 C 191.636719 250.382812 187.988281 250.382812 184.324219 250.382812 C 178.5 249.980469 172.65625 249.917969 166.824219 250.191406 L 164.476562 249.722656 L 158.101562 248.457031 C 157.445312 245.527344 154.683594 243.597656 151.75 244.023438 C 143.597656 244.734375 135.390625 244.464844 127.300781 243.226562 C 125.226562 242.855469 123.097656 243.445312 121.5 244.835938 L 121.5 230.671875 C 121.5 230.101562 120.75 229.699219 119.914062 229.214844 C 119.441406 228.933594 119.019531 228.574219 118.664062 228.152344 C 118.503906 227.964844 118.375 227.753906 118.273438 227.53125 L 118.273438 226.671875 C 118.273438 226.480469 117.925781 226.378906 116.914062 226.101562 L 115.335938 225.667969 L 115.335938 206.226562 C 115.335938 205.996094 115.074219 205.820312 114.585938 205.628906 L 110.835938 204.175781 L 110.835938 200.296875 C 110.800781 199.972656 110.628906 199.683594 110.363281 199.5 C 109.972656 199.207031 109.640625 198.84375 109.386719 198.421875 C 109.375 198.355469 109.375 198.289062 109.386719 198.21875 L 109.386719 203.488281 C 108.9375 203.199219 108.6875 202.894531 108.6875 202.578125 L 108.6875 215.066406 L 106.1875 212.535156 C 105.675781 212.015625 105.210938 211.484375 104.9375 211.128906 L 104.9375 223.453125 L 104.648438 223.453125 L 104.648438 250.902344 C 105.464844 250.683594 106.308594 250.582031 107.148438 250.597656 L 107.148438 275.144531 C 107.148438 275.425781 107.601562 275.828125 108.050781 275.980469 C 108.304688 276.066406 108.558594 276.167969 108.800781 276.285156 L 108.800781 277.550781 L 109.550781 277.90625 C 114.074219 280.058594 118.914062 277.285156 123.675781 279.171875 C 124.476562 279.488281 125.386719 280.375 124.925781 281.0625 C 126.726562 278.730469 143.675781 279.617188 146.976562 279.109375 C 150.9375 278.503906 161.800781 279.109375 164.574219 282.65625 C 164.863281 283.023438 164.75 283.554688 164.800781 284.011719 C 164.976562 285.671875 167.074219 286.214844 168.710938 286.304688 C 175.035156 286.632812 181.371094 286.265625 187.613281 285.203125 C 189.789062 284.835938 192.101562 282.542969 194.976562 282.238281 C 199.386719 281.78125 203.824219 282.238281 208.238281 281.898438 C 216.585938 281.261719 224.0625 275.957031 232.398438 275.992188 C 232.6875 273.460938 234.6875 271.953125 237.125 271.546875 C 239.5625 271.144531 242.238281 271.371094 244.1875 269.863281 C 246.136719 268.355469 246.25 266 247.5 264.011719 C 251.25 257.539062 260.738281 258.804688 267.074219 257.894531 C 271.375 257.273438 279.375 258.414062 281.125 263.25 C 281.347656 264.253906 281.714844 265.21875 282.210938 266.113281 C 283.460938 267.796875 286.148438 267.582031 287.789062 266.304688 C 288.261719 265.828125 288.832031 265.464844 289.460938 265.238281 C 290.058594 265.15625 290.667969 265.28125 291.1875 265.59375 C 294.023438 268.570312 298.351562 269.546875 302.511719 269.394531 C 305.648438 269.386719 308.675781 268.230469 311.039062 266.140625 L 311.414062 266.226562 C 312.5 266.527344 313.660156 266.363281 314.625 265.773438 C 314.640625 265.726562 314.640625 265.675781 314.625 265.632812 L 314.625 260.566406 L 314.914062 260.566406 L 314.914062 260.035156 C 315.078125 259.636719 315.40625 259.332031 315.8125 259.199219 C 316.664062 258.878906 317.542969 258.636719 318.4375 258.476562 C 319.074219 257.679688 319.6875 256.867188 320.261719 256.058594 C 320.414062 255.808594 320.507812 255.527344 320.539062 255.234375 C 320.601562 254.90625 320.828125 254.636719 321.136719 254.523438 C 321.632812 254.339844 322.160156 254.246094 322.6875 254.246094 C 323.613281 254.160156 324.523438 253.976562 325.414062 253.699219 C 326.664062 253.359375 327.988281 252.964844 329.261719 252.597656 C 329.613281 253.0625 330.011719 253.484375 330.449219 253.867188 C 331.699219 254.703125 333.238281 254.460938 335.023438 254.335938 C 336.738281 254.261719 338.429688 253.898438 340.023438 253.257812 C 340.585938 253.015625 341.105469 252.6875 341.5625 252.28125 C 341.902344 251.953125 342.289062 251.679688 342.710938 251.472656 C 343.042969 251.320312 343.398438 251.234375 343.761719 251.21875 C 344.574219 251.207031 345.378906 251.035156 346.125 250.710938 C 346.695312 250.421875 347.25 250.089844 347.773438 249.722656 C 347.976562 249.632812 348.335938 249.597656 349.023438 249.9375 C 349.027344 249.976562 349.027344 250.015625 349.023438 250.050781 L 349.023438 250.558594 C 349.023438 250.789062 349.023438 250.988281 349.300781 251.066406 C 350.511719 251.457031 351.789062 251.578125 353.050781 251.421875 L 353.050781 255.472656 C 353.050781 256.742188 355.085938 258.007812 357.925781 258.007812 C 358.9375 257.949219 359.929688 257.710938 360.863281 257.3125 C 361.414062 257.078125 361.917969 256.742188 362.351562 256.324219 L 362.351562 256.183594 C 362.558594 255.789062 362.699219 255.359375 362.761719 254.917969 L 362.761719 238.296875 C 363.789062 237.601562 365.261719 237.03125 366.386719 236.386719 C 368.050781 235.460938 369.273438 234.460938 369.273438 233.269531 L 369.273438 231.421875 L 369.414062 231.140625 C 369.761719 230.445312 370.363281 229.773438 370.363281 229.0625 L 370.363281 226.734375 C 371.050781 226.429688 371.289062 226.113281 371.289062 225.785156 L 371.289062 222.617188 C 371.453125 222.550781 371.601562 222.453125 371.726562 222.324219 L 371.726562 194.875 C 371.675781 195.230469 370.625 195.445312 370.625 195.761719 Z M 355.761719 199.058594 C 355.828125 199.253906 355.875 199.457031 355.914062 199.664062 C 356.085938 200.847656 356.03125 202.050781 355.75 203.210938 Z M 355.761719 199.058594 "/>
<path style=" stroke:none;fill-rule:nonzero;fill:rgb(96.862745%,38.039216%,34.901961%);fill-opacity:1;" d="M 380.164062 192.535156 C 380.742188 192.359375 381.351562 192.316406 381.949219 192.40625 C 382.613281 192.417969 383.269531 192.546875 383.886719 192.785156 C 386.023438 194.054688 389.136719 195.066406 389.75 196.890625 C 390.398438 198.09375 391.203125 199.207031 392.136719 200.195312 C 389.324219 199.816406 386.949219 199.550781 384.636719 199.171875 C 384.035156 199.082031 383.480469 198.792969 383.0625 198.347656 C 381.9375 196.699219 380.914062 195.042969 379.949219 193.371094 C 379.738281 193.003906 379.8125 192.722656 380.164062 192.535156 Z M 380.164062 192.535156 "/>
<path style=" stroke:none;fill-rule:nonzero;fill:rgb(96.862745%,38.039216%,34.901961%);fill-opacity:1;" d="M 233.949219 114.710938 C 241.988281 111.542969 250.199219 111.707031 258.488281 113.773438 C 265.261719 115.457031 272.050781 117.773438 279.023438 117.46875 C 283.824219 117.269531 288.523438 115.746094 293.351562 115.761719 C 299.601562 115.761719 303.199219 119.117188 309.363281 115.558594 C 309.6875 115.40625 309.964844 115.164062 310.164062 114.863281 C 310.285156 114.542969 310.363281 114.210938 310.398438 113.875 C 310.585938 113.230469 310.941406 112.65625 311.425781 112.203125 C 312.53125 110.964844 314 110.121094 315.613281 109.792969 C 319.613281 109.136719 320.023438 112.835938 322.511719 114.863281 C 323.761719 115.9375 325.273438 116.914062 325.699219 118.191406 C 326.023438 119.179688 327.148438 120.105469 327.75 121.09375 C 327.886719 121.335938 327.664062 121.765625 327.289062 121.929688 C 326.230469 122.238281 325.144531 122.441406 324.050781 122.539062 C 323.519531 122.566406 322.996094 122.675781 322.5 122.867188 C 322.320312 122.914062 322.167969 123.039062 322.085938 123.210938 C 322.003906 123.382812 322 123.578125 322.074219 123.753906 C 322.160156 124.207031 322.03125 124.675781 321.726562 125.019531 C 320.949219 126.070312 321.175781 126.183594 323.125 126.84375 C 325.761719 127.757812 328.324219 128.730469 330.625 129.796875 C 331.359375 130.023438 331.976562 130.539062 332.335938 131.226562 C 331.175781 132.898438 329.550781 132.859375 327.625 133.242188 C 328.21875 133.835938 328.550781 134.648438 328.550781 135.496094 C 328.550781 136.339844 328.21875 137.152344 327.625 137.75 C 327.113281 138.164062 326.550781 138.511719 325.949219 138.777344 C 324.152344 139.71875 322.535156 140.984375 321.1875 142.511719 C 321.03125 142.667969 320.910156 142.859375 320.835938 143.070312 C 320.789062 143.359375 320.8125 143.65625 320.914062 143.929688 C 321.691406 147.066406 320.882812 150.386719 318.761719 152.796875 C 317.324219 154.40625 315.226562 155.738281 315.011719 157.863281 C 315.023438 158.492188 314.929688 159.117188 314.738281 159.714844 C 314.460938 160.269531 313.574219 160.574219 313.238281 160.042969 C 313.914062 159.652344 313.023438 158.597656 312.238281 158.648438 C 311.449219 158.699219 310.539062 159.054688 309.988281 158.484375 C 309.4375 157.914062 309.726562 157.21875 309.664062 156.472656 C 309.375 155.074219 308.171875 154.0625 306.761719 154.039062 C 305.390625 154.054688 304.042969 154.398438 302.824219 155.039062 C 302.324219 155.253906 301.761719 155.546875 301.648438 156.089844 C 301.625 156.476562 301.691406 156.867188 301.851562 157.21875 C 302.988281 161.019531 301.585938 165.65625 297.585938 166.007812 C 297.199219 166.007812 300.476562 168.429688 301.335938 168.542969 C 303.835938 168.921875 306.148438 166.757812 308.835938 167.441406 C 309.824219 167.695312 310.699219 168.300781 311.664062 168.617188 C 312.621094 169.042969 313.738281 168.851562 314.5 168.125 C 315.050781 167.441406 315 166.441406 315.425781 165.65625 C 316.183594 164.660156 317.324219 164.03125 318.5625 163.933594 L 324.8125 162.550781 C 325.976562 162.296875 327.425781 162.144531 328.101562 163.132812 C 325.734375 164.007812 324.011719 166.09375 323.574219 168.605469 C 323.242188 170.375 323.777344 172.199219 325.011719 173.496094 C 327.375 175.761719 335.300781 174.421875 338.539062 174.761719 C 344.214844 175.304688 349.804688 176.582031 355.164062 178.5625 C 354.636719 179.925781 353.878906 181.1875 352.925781 182.285156 C 356.453125 180.441406 360.644531 180.441406 364.175781 182.285156 C 363.886719 182.082031 363.539062 182.566406 363.675781 182.894531 C 363.8125 183.222656 364.175781 183.386719 364.460938 183.578125 C 365.414062 184.238281 368.335938 197.285156 371.710938 194.824219 L 370.636719 195.597656 C 370.988281 196.324219 371.171875 197.121094 371.175781 197.929688 C 371.15625 198.757812 370.59375 199.472656 369.800781 199.675781 C 371.300781 199.460938 368.460938 207.050781 367.835938 207.808594 C 366.136719 209.886719 362 211.609375 359.425781 212.140625 L 360.875 214.066406 C 357.574219 216.195312 354.730469 218.972656 352.511719 222.238281 L 355.011719 223.402344 C 352.882812 224.351562 350.402344 223.964844 348.648438 222.414062 C 343.976562 222.351562 340.164062 226.785156 335.488281 226.871094 C 332.988281 226.871094 330.601562 225.695312 328.085938 225.605469 C 324.476562 225.492188 321.25 227.734375 318.3125 229.875 L 310.324219 235.714844 C 311.386719 236.859375 312.769531 237.640625 314.289062 237.957031 C 307.023438 241.386719 300.976562 239.933594 293.613281 238.460938 C 290.886719 237.917969 284.1875 241.109375 282.449219 238.929688 C 282.027344 238.226562 281.742188 237.441406 281.613281 236.625 C 280.640625 233.96875 278.4375 231.96875 275.726562 231.28125 C 273.046875 230.628906 270.28125 230.433594 267.539062 230.699219 C 262.460938 230.902344 256.976562 230.953125 252.136719 232.6875 C 246.5625 234.6875 248.386719 239.019531 244.363281 242.402344 C 242.488281 244.011719 239.761719 243.820312 237.324219 244.136719 C 233.664062 244.617188 233.976562 247.277344 231.835938 248.683594 C 230.488281 249.570312 226.949219 249.734375 225.300781 250.21875 C 213.835938 253.546875 202.0625 254.6875 190.074219 256.207031 C 188.914062 256.359375 187.4375 256.878906 187.488281 258.070312 C 187.488281 258.425781 170.125 259.640625 168.023438 258.589844 C 167.710938 258.4375 166.925781 258.515625 166.488281 258.386719 C 165.726562 258.160156 165.085938 257.855469 164.398438 257.589844 C 165 257.363281 165.648438 257.171875 166.175781 256.929688 C 166.816406 256.699219 167.40625 256.339844 167.914062 255.878906 C 165.238281 253.914062 157.625 253.246094 154.164062 252.585938 C 146.476562 251.15625 137.699219 253.015625 130 253.636719 C 128.625 253.828125 127.230469 253.777344 125.875 253.484375 C 124.503906 252.941406 123.167969 252.304688 121.875 251.585938 C 119.300781 250.484375 116.875 250.976562 114.261719 250.953125 C 114.261719 250.953125 108.011719 250.800781 108.800781 250.167969 C 109 250 109.160156 249.789062 109.261719 249.546875 C 108.941406 249.109375 108.46875 248.808594 107.9375 248.710938 C 107.414062 248.53125 106.898438 248.011719 107.074219 247.761719 C 108.074219 246.289062 109.273438 244.847656 110.335938 243.492188 C 111.230469 243.632812 112.132812 243.683594 113.039062 243.644531 C 113.351562 243.570312 113.65625 243.46875 113.949219 243.339844 C 115.023438 242.859375 115.3125 242.074219 114.75 241.363281 C 114.476562 241.019531 114.074219 240.691406 113.988281 240.335938 C 113.914062 240 114.074219 239.652344 114.375 239.488281 C 114.738281 239.363281 115 239.261719 115.25 239.148438 C 116.289062 238.710938 117.132812 237.898438 117.613281 236.867188 C 118.5 234.949219 119.664062 233.171875 121.0625 231.597656 C 122.023438 230.546875 121.0625 230.039062 119.8125 229.367188 C 119.34375 229.085938 118.917969 228.726562 118.5625 228.304688 C 118.3125 227.972656 118.097656 227.617188 117.925781 227.238281 C 118.351562 226.683594 118.335938 226.695312 116.8125 226.253906 C 115.023438 225.746094 113.136719 225.289062 111.5 224.695312 C 109.476562 223.960938 107.9375 222.757812 104.414062 223.644531 C 104.601562 223.199219 104.585938 222.945312 104.8125 222.742188 C 106.0625 221.601562 107.3125 220.476562 108.699219 219.347656 C 110.664062 218.726562 111.875 218.4375 112.949219 218.082031 C 113.363281 217.90625 113.488281 217.625 113.710938 217.410156 C 113.203125 217.261719 112.679688 217.171875 112.148438 217.144531 C 111.25 217.359375 110.304688 217.085938 109.648438 216.421875 C 108.476562 215.15625 107.148438 213.890625 105.898438 212.6875 C 105.386719 212.167969 104.925781 211.632812 104.648438 211.28125 C 108.226562 210.011719 112.761719 209.441406 115.398438 206.503906 C 115.574219 206.300781 110.601562 204.300781 110.023438 204.058594 C 108.164062 203.324219 107.960938 202.375 109.601562 201.527344 C 110.035156 201.34375 110.40625 201.027344 110.664062 200.628906 C 106.3125 196.296875 115.113281 196.828125 117.601562 196.953125 C 123.324219 197.296875 129.011719 195.902344 134.726562 196.347656 C 140.199219 196.765625 143.050781 200.234375 147.9375 201.414062 C 149.726562 201.6875 151.558594 201.457031 153.226562 200.742188 C 157.210938 199.375 161.101562 197.511719 165.261719 196.941406 C 170.4375 196.195312 175.675781 197.421875 180.898438 197.523438 C 188.851562 197.6875 194.648438 194.597656 201.773438 191.660156 C 208.898438 188.71875 216.960938 189.039062 224.023438 185.84375 L 224.949219 185.390625 C 225.390625 185.238281 225.847656 185.148438 226.3125 185.125 C 227.03125 185.121094 227.746094 185.046875 228.449219 184.90625 C 229.253906 184.574219 229.972656 184.058594 230.550781 183.402344 C 234.300781 177.964844 241.460938 177.066406 244.773438 172 C 245.660156 170.421875 246.175781 168.65625 246.273438 166.84375 C 246.347656 166.5625 246.347656 166.265625 246.273438 165.984375 C 246.078125 165.628906 245.734375 165.378906 245.335938 165.300781 C 243.949219 164.894531 242 164.667969 240.851562 163.691406 C 240.21875 163.214844 240.007812 162.347656 240.351562 161.625 C 240.652344 161.21875 241.101562 160.945312 241.601562 160.867188 C 243.800781 160.269531 246.601562 161.042969 248.039062 159.21875 C 248.761719 158.28125 248.789062 156.925781 249.511719 155.988281 C 250.140625 155.390625 250.800781 154.824219 251.488281 154.292969 C 254.5625 151.0625 255.761719 139.980469 263.460938 142.273438 C 259.40625 141.066406 255.183594 140.550781 250.960938 140.738281 C 249.4375 140.816406 247.648438 141.144531 246.988281 142.539062 C 246.84375 143.015625 246.632812 143.472656 246.363281 143.894531 C 245.664062 144.691406 244.375 144.261719 243.335938 144.4375 C 241.5625 144.742188 240.4375 146.871094 238.636719 146.972656 C 237.199219 147.058594 236.050781 145.820312 235.136719 144.679688 C 233.566406 142.882812 232.121094 140.976562 230.8125 138.980469 C 232.273438 138.660156 233.773438 138.484375 235.261719 138.167969 C 235.574219 138.101562 235.882812 138.003906 236.175781 137.875 C 237.445312 136.496094 238.464844 134.902344 239.1875 133.164062 C 237.433594 132.585938 235.882812 131.503906 234.726562 130.046875 C 233.476562 128.261719 232.925781 125.96875 231.5 124.296875 C 230.074219 122.625 226.988281 122.019531 225.949219 123.96875 C 224.953125 123.394531 224.53125 122.15625 224.960938 121.082031 C 225.414062 120.042969 226.160156 119.160156 227.101562 118.546875 C 229.195312 116.949219 231.5 115.660156 233.949219 114.710938 Z M 233.949219 114.710938 "/>
<path style=" stroke:none;fill-rule:nonzero;fill:rgb(23.921569%,7.843137%,7.843137%);fill-opacity:1;" d="M 270.375 209.925781 L 280.375 215.511719 C 280.375 215.511719 279.273438 200.171875 279.125 199.867188 C 278.976562 199.5625 272.875 193.773438 272.875 193.773438 C 272.875 193.773438 269.976562 193.570312 270.273438 193.269531 C 269.890625 193.863281 269.472656 194.441406 269.023438 194.992188 Z M 270.375 209.925781 "/>
<path style=" stroke:none;fill-rule:nonzero;fill:rgb(25.098039%,61.960784%,100%);fill-opacity:1;" d="M 293.824219 229.230469 L 325.085938 210.34375 L 325.085938 183.121094 L 293.523438 200.894531 Z M 293.824219 229.230469 "/>
<use xlink:href="#surface5" mask="url(#mask0)"/>
<path style=" stroke:none;fill-rule:nonzero;fill:rgb(20.392157%,30.588235%,30.980392%);fill-opacity:1;" d="M 265.773438 212.800781 L 270.386719 209.960938 L 270.386719 193.800781 C 270.386719 193.800781 263.8125 196.535156 264.039062 196.851562 C 264.261719 197.167969 265.289062 207.214844 265.289062 207.214844 Z M 265.773438 212.800781 "/>
<path style=" stroke:none;fill-rule:nonzero;fill:rgb(25.098039%,61.960784%,100%);fill-opacity:1;" d="M 250.738281 176.828125 L 250.738281 204.148438 L 265.738281 212.773438 L 265.738281 198.96875 C 265.738281 198.96875 266.335938 194.089844 271.851562 196.433594 C 277.363281 198.777344 276.851562 206.289062 276.851562 206.289062 L 276.851562 219.691406 L 293.824219 229.265625 L 293.824219 199.980469 Z M 250.738281 176.828125 "/>
<path style=" stroke:none;fill-rule:nonzero;fill:rgb(20.392157%,30.588235%,30.980392%);fill-opacity:1;" d="M 243.585938 173.265625 C 243.585938 173.265625 293.585938 202.78125 293.824219 202.652344 C 294.0625 202.527344 331.324219 180.855469 331.324219 180.855469 L 307.9375 166.742188 L 270.789062 159.257812 Z M 243.585938 173.265625 "/>
<path style=" stroke:none;fill-rule:nonzero;fill:rgb(20.392157%,30.588235%,30.980392%);fill-opacity:1;" d="M 262.023438 160.003906 C 261.488281 160.144531 243.585938 173.28125 243.585938 173.28125 L 270.851562 165.933594 Z M 262.023438 160.003906 "/>
<path style=" stroke:none;fill-rule:nonzero;fill:rgb(20.392157%,30.588235%,30.980392%);fill-opacity:1;" d="M 310.800781 174.902344 L 331.375 180.855469 L 310.398438 167.921875 "/>
<path style=" stroke:none;fill-rule:nonzero;fill:rgb(20.392157%,30.588235%,30.980392%);fill-opacity:1;" d="M 264.039062 163.792969 L 264.039062 167.515625 L 293.824219 184.921875 L 310.800781 174.902344 L 310.800781 170.570312 "/>
<path style=" stroke:none;fill-rule:nonzero;fill:rgb(20.392157%,30.588235%,30.980392%);fill-opacity:1;" d="M 264.835938 156.484375 C 264.835938 156.484375 256.425781 160.675781 256.824219 160.816406 C 257.226562 160.957031 293.074219 182.210938 293.074219 182.210938 L 317.925781 168.667969 L 288.238281 151.289062 "/>
<path style=" stroke:none;fill-rule:nonzero;fill:rgb(20.392157%,30.588235%,30.980392%);fill-opacity:1;" d="M 293.824219 173.265625 L 264.835938 156.484375 L 272.851562 145.25 L 284.335938 148.898438 L 309.460938 164.464844 "/>
<path style=" stroke:none;fill-rule:nonzero;fill:rgb(20.392157%,30.588235%,30.980392%);fill-opacity:1;" d="M 293.824219 173.265625 L 309.460938 164.464844 L 301.636719 161.765625 Z M 293.824219 173.265625 "/>
<path style=" stroke:none;fill-rule:nonzero;fill:rgb(11.764706%,25.490196%,33.72549%);fill-opacity:1;" d="M 301.988281 213.863281 C 301.988281 213.648438 301.988281 209.292969 301.988281 209.292969 C 301.988281 209.292969 301.789062 206.453125 303.699219 206.1875 C 305.613281 205.921875 305.5 208.417969 305.5 208.417969 L 305.5 211.734375 Z M 301.988281 213.863281 "/>
<path style=" stroke:none;fill-rule:nonzero;fill:rgb(11.764706%,25.490196%,33.72549%);fill-opacity:1;" d="M 307.914062 210.34375 C 307.914062 210.128906 307.914062 205.769531 307.914062 205.769531 C 307.914062 205.769531 307.710938 202.933594 309.625 202.667969 C 311.539062 202.402344 311.425781 204.894531 311.425781 204.894531 L 311.425781 208.214844 Z M 307.914062 210.34375 "/>
<path style=" stroke:none;fill-rule:nonzero;fill:rgb(11.764706%,25.490196%,33.72549%);fill-opacity:1;" d="M 313.75 207.125 C 313.75 206.910156 313.75 202.550781 313.75 202.550781 C 313.75 202.550781 313.550781 199.714844 315.460938 199.449219 C 317.375 199.183594 317.261719 201.679688 317.261719 201.679688 L 317.261719 204.996094 Z M 313.75 207.125 "/>
<path style=" stroke:none;fill-rule:nonzero;fill:rgb(20.392157%,30.588235%,30.980392%);fill-opacity:1;" d="M 250.738281 204.136719 L 250.738281 199.523438 L 265.773438 208.101562 L 265.773438 212.773438 Z M 250.738281 204.136719 "/>
<path style=" stroke:none;fill-rule:nonzero;fill:rgb(20.392157%,30.588235%,30.980392%);fill-opacity:1;" d="M 276.886719 219.527344 L 276.886719 214.902344 L 293.773438 224.542969 L 293.824219 229.582031 Z M 276.886719 219.527344 "/>
<path style=" stroke:none;fill-rule:nonzero;fill:rgb(11.764706%,25.490196%,33.72549%);fill-opacity:1;" d="M 293.75 224.542969 L 325.0625 205.542969 C 325.0625 205.542969 325.363281 210.140625 325.0625 210.316406 L 293.8125 229.558594 Z M 293.75 224.542969 "/>
<path style=" stroke:none;fill-rule:nonzero;fill:rgb(20.392157%,30.588235%,30.980392%);fill-opacity:1;" d="M 293.824219 173.265625 L 264.835938 156.484375 L 262.398438 157.710938 Z M 293.824219 173.265625 "/>
<path style=" stroke:none;fill-rule:nonzero;fill:rgb(25.098039%,61.960784%,100%);fill-opacity:1;" d="M 217.113281 205.972656 L 217.113281 211.253906 C 217.113281 211.605469 217.390625 211.886719 217.738281 211.886719 C 218.082031 211.886719 218.363281 211.605469 218.363281 211.253906 L 218.363281 205.972656 C 218.363281 205.621094 218.082031 205.339844 217.738281 205.339844 C 217.390625 205.339844 217.113281 205.621094 217.113281 205.972656 Z M 217.113281 205.972656 "/>
<path style=" stroke:none;fill-rule:nonzero;fill:rgb(25.098039%,61.960784%,100%);fill-opacity:1;" d="M 219.925781 206.464844 L 219.925781 215.117188 C 219.925781 215.46875 220.203125 215.75 220.550781 215.75 C 220.894531 215.75 221.175781 215.46875 221.175781 215.117188 L 221.175781 206.464844 C 221.175781 206.117188 220.894531 205.832031 220.550781 205.832031 C 220.203125 205.832031 219.925781 206.117188 219.925781 206.464844 Z M 219.925781 206.464844 "/>
<path style=" stroke:none;fill-rule:nonzero;fill:rgb(25.098039%,61.960784%,100%);fill-opacity:1;" d="M 222.113281 206.1875 L 222.113281 217.589844 C 222.113281 217.9375 222.390625 218.222656 222.738281 218.222656 C 223.082031 218.222656 223.363281 217.9375 223.363281 217.589844 L 223.363281 206.1875 C 223.363281 205.839844 223.082031 205.554688 222.738281 205.554688 C 222.390625 205.554688 222.113281 205.839844 222.113281 206.1875 Z M 222.113281 206.1875 "/>
<path style=" stroke:none;fill-rule:nonzero;fill:rgb(25.098039%,61.960784%,100%);fill-opacity:1;" d="M 225 204.707031 L 225 213.574219 C 225 213.921875 225.28125 214.207031 225.625 214.207031 C 225.96875 214.207031 226.25 213.921875 226.25 213.574219 L 226.25 204.707031 C 226.25 204.355469 225.96875 204.074219 225.625 204.074219 C 225.28125 204.074219 225 204.355469 225 204.707031 Z M 225 204.707031 "/>
<path style=" stroke:none;fill-rule:nonzero;fill:rgb(25.098039%,61.960784%,100%);fill-opacity:1;" d="M 229.1875 203.820312 C 229.1875 200.761719 225.96875 198.285156 222 198.285156 C 218.03125 198.285156 214.8125 200.761719 214.8125 203.820312 C 214.8125 206.875 218.03125 209.355469 222 209.355469 C 225.96875 209.355469 229.1875 206.875 229.1875 203.820312 Z M 229.1875 203.820312 "/>
<use xlink:href="#surface8" mask="url(#mask1)"/>
<path style=" stroke:none;fill-rule:nonzero;fill:rgb(25.098039%,61.960784%,100%);fill-opacity:1;" d="M 139.664062 162.347656 L 139.664062 167.628906 C 139.664062 167.980469 139.941406 168.265625 140.289062 168.265625 C 140.632812 168.265625 140.914062 167.980469 140.914062 167.628906 L 140.914062 162.347656 C 140.914062 162 140.632812 161.714844 140.289062 161.714844 C 139.941406 161.714844 139.664062 162 139.664062 162.347656 Z M 139.664062 162.347656 "/>
<path style=" stroke:none;fill-rule:nonzero;fill:rgb(25.098039%,61.960784%,100%);fill-opacity:1;" d="M 142.5 162.878906 L 142.5 171.53125 C 142.5 171.882812 142.78125 172.164062 143.125 172.164062 C 143.46875 172.164062 143.75 171.882812 143.75 171.53125 L 143.75 162.878906 C 143.75 162.53125 143.46875 162.246094 143.125 162.246094 C 142.78125 162.246094 142.5 162.53125 142.5 162.878906 Z M 142.5 162.878906 "/>
<path style=" stroke:none;fill-rule:nonzero;fill:rgb(25.098039%,61.960784%,100%);fill-opacity:1;" d="M 144.664062 162.5625 L 144.664062 173.964844 C 144.664062 174.3125 144.941406 174.597656 145.289062 174.597656 C 145.632812 174.597656 145.914062 174.3125 145.914062 173.964844 L 145.914062 162.5625 C 145.914062 162.214844 145.632812 161.929688 145.289062 161.929688 C 144.941406 161.929688 144.664062 162.214844 144.664062 162.5625 Z M 144.664062 162.5625 "/>
<path style=" stroke:none;fill-rule:nonzero;fill:rgb(25.098039%,61.960784%,100%);fill-opacity:1;" d="M 147.574219 161.082031 L 147.574219 169.949219 C 147.574219 170.296875 147.855469 170.582031 148.199219 170.582031 C 148.546875 170.582031 148.824219 170.296875 148.824219 169.949219 L 148.824219 161.082031 C 148.824219 160.730469 148.546875 160.449219 148.199219 160.449219 C 147.855469 160.449219 147.574219 160.730469 147.574219 161.082031 Z M 147.574219 161.082031 "/>
<path style=" stroke:none;fill-rule:nonzero;fill:rgb(25.098039%,61.960784%,100%);fill-opacity:1;" d="M 151.75 160.207031 C 151.75 157.152344 148.53125 154.671875 144.5625 154.671875 C 140.59375 154.671875 137.375 157.152344 137.375 160.207031 C 137.375 163.265625 140.59375 165.742188 144.5625 165.742188 C 148.53125 165.742188 151.75 163.265625 151.75 160.207031 Z M 151.75 160.207031 "/>
<use xlink:href="#surface11" mask="url(#mask2)"/>
<path style=" stroke:none;fill-rule:nonzero;fill:rgb(20.392157%,30.588235%,30.980392%);fill-opacity:1;" d="M 170.601562 186.882812 L 197.0625 201.539062 L 197.0625 208.605469 L 170.601562 193.6875 Z M 170.601562 186.882812 "/>
<path style=" stroke:none;fill-rule:nonzero;fill:rgb(20.392157%,30.588235%,30.980392%);fill-opacity:1;" d="M 170.601562 173.835938 L 197.0625 188.503906 L 197.0625 195.574219 L 170.601562 180.652344 Z M 170.601562 173.835938 "/>
<use xlink:href="#surface14" mask="url(#mask3)"/>
<path style=" stroke:none;fill-rule:nonzero;fill:rgb(25.098039%,61.960784%,100%);fill-opacity:1;" d="M 187.164062 238.183594 L 198.675781 244.835938 L 209.039062 237.550781 L 198.101562 230.265625 Z M 187.164062 238.183594 "/>
<path style=" stroke:none;fill-rule:nonzero;fill:rgb(25.098039%,61.960784%,100%);fill-opacity:1;" d="M 195.851562 186.046875 L 201.851562 186.046875 L 201.851562 233.953125 L 195.851562 233.953125 Z M 195.851562 186.046875 "/>
<path style=" stroke:none;fill-rule:nonzero;fill:rgb(25.098039%,61.960784%,100%);fill-opacity:1;" d="M 195.511719 230.800781 C 195.511719 230.800781 199.261719 233.761719 201.851562 230.800781 L 201.851562 228.683594 C 201.851562 228.683594 203 228.683594 203.414062 230.507812 L 203.414062 238.386719 C 203.414062 238.386719 202.726562 240.503906 198.851562 240.386719 C 194.976562 240.273438 193.925781 237.753906 193.925781 237.753906 L 193.925781 230.535156 C 193.925781 230.535156 194.023438 228.695312 195.488281 228.695312 Z M 195.511719 230.800781 "/>
<path style=" stroke:none;fill-rule:nonzero;fill:rgb(25.098039%,61.960784%,100%);fill-opacity:1;" d="M 165.511719 213.941406 C 165.511719 213.941406 169.261719 216.902344 171.851562 213.941406 L 171.851562 211.824219 C 171.851562 211.824219 173 211.824219 173.414062 213.648438 L 173.414062 221.527344 C 173.414062 221.527344 172.726562 223.644531 168.851562 223.527344 C 164.976562 223.414062 163.925781 220.894531 163.925781 220.894531 L 163.925781 213.648438 C 163.925781 213.648438 164.023438 211.8125 165.488281 211.8125 Z M 165.511719 213.941406 "/>
<use xlink:href="#surface17" mask="url(#mask4)"/>
<use xlink:href="#surface20" mask="url(#mask5)"/>
<path style=" stroke:none;fill-rule:nonzero;fill:rgb(25.098039%,61.960784%,100%);fill-opacity:1;" d="M 157 220.285156 L 168.511719 226.9375 L 178.875 219.652344 L 167.9375 212.371094 Z M 157 220.285156 "/>
<path style=" stroke:none;fill-rule:nonzero;fill:rgb(25.098039%,61.960784%,100%);fill-opacity:1;" d="M 165.851562 169.1875 L 171.851562 169.1875 L 171.851562 217.09375 L 165.851562 217.09375 Z M 165.851562 169.1875 "/>
<use xlink:href="#surface23" mask="url(#mask6)"/>
<path style=" stroke:none;fill-rule:nonzero;fill:rgb(20.392157%,30.588235%,30.980392%);fill-opacity:1;" d="M 225 195.230469 C 166.675781 169.035156 146.1875 148.605469 145.574219 148.136719 C 145.3125 147.933594 144.148438 148.59375 142.898438 149.402344 L 139.324219 149.402344 L 139.324219 151.9375 C 171.148438 180.335938 222.9375 201.046875 222.9375 201.046875 L 228.386719 196.75 L 228.386719 194.21875 Z M 225 195.230469 "/>
<path style=" stroke:none;fill-rule:nonzero;fill:rgb(25.098039%,61.960784%,100%);fill-opacity:1;" d="M 139.300781 149.464844 C 139.300781 149.464844 144.925781 145.199219 145.550781 145.667969 C 146.175781 146.136719 167.425781 167.363281 228.363281 194.28125 L 222.914062 198.574219 C 222.914062 198.574219 171.125 177.800781 139.300781 149.464844 Z M 139.300781 149.464844 "/>
</g>
</svg>
